<mxfile host="app.diagrams.net" modified="2021-10-21T09:55:29.675Z" agent="5.0 (Windows)" etag="Kt5iCjbk-7eUQRw00g0w" version="15.5.8" type="github">
  <diagram id="GmPR789Bmr38LIS68_kA" name="Page-1">
    <mxGraphModel dx="1422" dy="752" grid="1" gridSize="10" guides="1" tooltips="1" connect="1" arrows="1" fold="1" page="1" pageScale="1" pageWidth="827" pageHeight="1169" math="0" shadow="0">
      <root>
        <mxCell id="0" />
        <mxCell id="1" parent="0" />
        <mxCell id="ef32Y5g5x6Kfw0PTrcRZ-2" value=".Net" style="rounded=0;whiteSpace=wrap;html=1;fillColor=none;align=left;" vertex="1" parent="1">
          <mxGeometry x="40" y="120" width="40" height="80" as="geometry" />
        </mxCell>
        <mxCell id="ef32Y5g5x6Kfw0PTrcRZ-3" value="&#xa;&lt;a href=&quot;https://docs.microsoft.com/zh-cn/dotnet/api/system.iserviceprovider&quot;&gt;IServiceProvider&lt;/a&gt;&#xa;&#xa;" style="rounded=0;whiteSpace=wrap;html=1;fillColor=none;align=left;" vertex="1" parent="1">
          <mxGeometry x="110" y="50" width="120" height="60" as="geometry" />
        </mxCell>
      </root>
    </mxGraphModel>
  </diagram>
</mxfile>
